REM GENRE Alternative
REM DATE 1987
REM DISCID 350CAA15
REM COMMENT "ExactAudioCopy v0.99pb4"
CATALOG 0000000000000
PERFORMER "Pixies"
TITLE "Surfer Rosa & Come on Pilgrim"
FILE "Pixies - Surfer Rosa & Come on Pilgrim\01 - Pixies - Bone Machine.wav" WAVE
  TRACK 01 AUDIO
    TITLE "Bone Machine"
    PERFORMER "Pixies"
    ISRC 000000000000
    PREGAP 00:00:32
    INDEX 01 00:00:00
FILE "Pixies - Surfer Rosa & Come on Pilgrim\02 - Pixies - Break My Body.wav" WAVE
  TRACK 02 AUDIO
    TITLE "Break My Body"
    PERFORMER "Pixies"
    ISRC 000000000000
    INDEX 01 00:00:00
  TRACK 03 AUDIO
    TITLE "Something Against You"
    PERFORMER "Pixies"
    ISRC 000000000000
    INDEX 00 02:05:00
FILE "Pixies - Surfer Rosa & Come on Pilgrim\03 - Pixies - Something Against You.wav" WAVE
    INDEX 01 00:00:00
FILE "Pixies - Surfer Rosa & Come on Pilgrim\04 - Pixies - Broken Face.wav" WAVE
  TRACK 04 AUDIO
    TITLE "Broken Face"
    PERFORMER "Pixies"
    ISRC 000000000000
    INDEX 01 00:00:00
FILE "Pixies - Surfer Rosa & Come on Pilgrim\05 - Pixies - Gigantic.wav" WAVE
  TRACK 05 AUDIO
    TITLE "Gigantic"
    PERFORMER "Pixies"
    ISRC 000000000000
    INDEX 01 00:00:00
FILE "Pixies - Surfer Rosa & Come on Pilgrim\06 - Pixies - River Euphrates.wav" WAVE
  TRACK 06 AUDIO
    TITLE "River Euphrates"
    PERFORMER "Pixies"
    ISRC 000000000000
    INDEX 01 00:00:00
FILE "Pixies - Surfer Rosa & Come on Pilgrim\07 - Pixies - Where Is My Mind .wav" WAVE
  TRACK 07 AUDIO
    TITLE "Where Is My Mind?"
    PERFORMER "Pixies"
    ISRC 000000000000
    INDEX 01 00:00:00
FILE "Pixies - Surfer Rosa & Come on Pilgrim\08 - Pixies - Cactus.wav" WAVE
  TRACK 08 AUDIO
    TITLE "Cactus"
    PERFORMER "Pixies"
    ISRC 000000000000
    INDEX 01 00:00:00
FILE "Pixies - Surfer Rosa & Come on Pilgrim\09 - Pixies - Tony's Theme.wav" WAVE
  TRACK 09 AUDIO
    TITLE "Tony's Theme"
    PERFORMER "Pixies"
    ISRC 000000000000
    INDEX 01 00:00:00
FILE "Pixies - Surfer Rosa & Come on Pilgrim\10 - Pixies - Oh My Golly!.wav" WAVE
  TRACK 10 AUDIO
    TITLE "Oh My Golly!"
    PERFORMER "Pixies"
    ISRC 000000000000
    INDEX 01 00:00:00
FILE "Pixies - Surfer Rosa & Come on Pilgrim\11 - Pixies - Vamos.wav" WAVE
  TRACK 11 AUDIO
    TITLE "Vamos"
    PERFORMER "Pixies"
    ISRC 000000000000
    INDEX 01 00:00:00
    INDEX 02 00:44:70
FILE "Pixies - Surfer Rosa & Come on Pilgrim\12 - Pixies - I'm Amazed.wav" WAVE
  TRACK 12 AUDIO
    TITLE "I'm Amazed"
    PERFORMER "Pixies"
    ISRC 000000000000
    INDEX 01 00:00:00
FILE "Pixies - Surfer Rosa & Come on Pilgrim\13 - Pixies - Brick is Red.wav" WAVE
  TRACK 13 AUDIO
    TITLE "Brick is Red"
    PERFORMER "Pixies"
    ISRC 000000000000
    INDEX 01 00:00:00
FILE "Pixies - Surfer Rosa & Come on Pilgrim\14 - Pixies - Caribou.wav" WAVE
  TRACK 14 AUDIO
    TITLE "Caribou"
    PERFORMER "Pixies"
    ISRC 000000000000
    INDEX 01 00:00:00
FILE "Pixies - Surfer Rosa & Come on Pilgrim\15 - Pixies - Vamos.wav" WAVE
  TRACK 15 AUDIO
    TITLE "Vamos"
    PERFORMER "Pixies"
    ISRC 000000000000
    INDEX 01 00:00:00
FILE "Pixies - Surfer Rosa & Come on Pilgrim\16 - Pixies - Isla de Encanta.wav" WAVE
  TRACK 16 AUDIO
    TITLE "Isla de Encanta"
    PERFORMER "Pixies"
    ISRC 000000000000
    INDEX 01 00:00:00
FILE "Pixies - Surfer Rosa & Come on Pilgrim\17 - Pixies - Ed is Dead.wav" WAVE
  TRACK 17 AUDIO
    TITLE "Ed is Dead"
    PERFORMER "Pixies"
    ISRC 000000000000
    INDEX 01 00:00:00
FILE "Pixies - Surfer Rosa & Come on Pilgrim\18 - Pixies - The Holyday Song.wav" WAVE
  TRACK 18 AUDIO
    TITLE "The Holyday Song"
    PERFORMER "Pixies"
    ISRC 000000000000
    INDEX 01 00:00:00
FILE "Pixies - Surfer Rosa & Come on Pilgrim\19 - Pixies - Nimrod's Son.wav" WAVE
  TRACK 19 AUDIO
    TITLE "Nimrod's Son"
    PERFORMER "Pixies"
    ISRC 000000000000
    INDEX 01 00:00:00
FILE "Pixies - Surfer Rosa & Come on Pilgrim\20 - Pixies - I've Been Tired.wav" WAVE
  TRACK 20 AUDIO
    TITLE "I've Been Tired"
    PERFORMER "Pixies"
    ISRC 000000000000
    INDEX 01 00:00:00
FILE "Pixies - Surfer Rosa & Come on Pilgrim\21 - Pixies - Levitate Me.wav" WAVE
  TRACK 21 AUDIO
    TITLE "Levitate Me"
    PERFORMER "Pixies"
    ISRC 000000000000
    INDEX 01 00:00:00
